<?xml version="1.0" encoding="UTF-8" standalone="no"?>
<svg
   xmlns:dc="http://purl.org/dc/elements/1.1/"
   xmlns:cc="http://creativecommons.org/ns#"
   xmlns:rdf="http://www.w3.org/1999/02/22-rdf-syntax-ns#"
   xmlns:svg="http://www.w3.org/2000/svg"
   xmlns="http://www.w3.org/2000/svg"
   viewBox="0 0 317.33334 284"
   height="284"
   width="317.33334"
   xml:space="preserve"
   id="svg2"
   version="1.1"><metadata
     id="metadata8"><rdf:RDF><cc:Work
         rdf:about=""><dc:format>image/svg+xml</dc:format><dc:type
           rdf:resource="http://purl.org/dc/dcmitype/StillImage" /></cc:Work></rdf:RDF></metadata><defs
     id="defs6" /><g
     transform="matrix(1.3333333,0,0,-1.3333333,0,284)"
     id="g10"><g
       transform="scale(0.1)"
       id="g12"><path
         id="path14"
         style="fill:#fadea1;fill-opacity:1;fill-rule:evenodd;stroke:none"
         d="m 1366.99,1287.5 c 2.03,33.36 5.35,64.84 10,94.49 h -112.5 v -94.49 h 102.5" /><path
         id="path16"
         style="fill:#68737a;fill-opacity:1;fill-rule:evenodd;stroke:none"
         d="m 1951.99,2044.02 c -2.65,-5 -13.83,-77.03 -33.47,-216.01 8.67,-28.67 32.14,-64.85 70.5,-108.52 7,121.02 15.16,219.18 24.5,294.53 9.33,75 14.49,113.64 15.5,115.98 H 806.52 l -37.032,-43.01 c 12.703,-19.33 27.032,-44.14 43.012,-74.49 15.66,-30.31 25.859,-59.49 30.512,-87.5 L 601.988,1804.02 c 25.672,-59.02 55.512,-150.66 89.532,-275 33.992,-124.33 56.492,-268.16 67.5,-431.52 L 529.488,1160.51 0,917.5 h 1022.5 l -0.98,1.02 h 42.5 c 3.99,51.992 3.99,136.83 0,254.49 -4.33,117.65 -18.67,253.01 -43,406.01 -24.032,152.97 -64.032,307.97 -120,465 h 1050.97" /><path
         id="path18"
         style="fill:#68737a;fill-opacity:1;fill-rule:evenodd;stroke:none"
         d="m 1984.02,1493.01 h -95.5 c -11.33,-178.99 -6.68,-370.35 13.98,-573.99 h 143.52 c -22.35,91.64 -38.17,186.64 -47.5,285 -9.34,97.97 -14.18,194.34 -14.5,288.99" /><path
         id="path20"
         style="fill:#68737a;fill-opacity:1;fill-rule:evenodd;stroke:none"
         d="m 1543.52,1303.01 7.5,-65 h 150.5 c -0.35,-3.67 -0.5,-37.15 -0.5,-100.51 -0.36,-63.67 2.5,-136.17 8.47,-217.5 h 84.53 c -1.36,1.332 -4.02,35.859 -8,103.52 -3.68,67.65 0.15,160.82 11.48,279.49 h -253.98" /><path
         id="path22"
         style="fill:#68737a;fill-opacity:1;fill-rule:evenodd;stroke:none"
         d="m 1366.99,1287.5 h -102.5 v 95 h 112.03 c -4.33,-29.65 -7.5,-61.33 -9.53,-95 m -256.99,161.99 8.01,-66.99 h 108.51 v -95 h -100 v -25.98 h 100 v -104.53 h 37.97 v 104.53 h 101.02 c -1.33,-29.68 -2.15,-54.33 -2.5,-74.02 -0.35,-20 -0.51,-30.31 -0.51,-30.98 h 91.99 c -5.66,55.32 -5.97,116.49 -0.97,183.48 5,66.99 8.16,103.52 9.49,109.49 H 1110" /><path
         id="path24"
         style="fill:#68737a;fill-opacity:1;fill-rule:evenodd;stroke:none"
         d="m 1650.51,1093.01 c -15.67,-1.33 -24.34,-10 -26.02,-26.02 1.68,-15.97 10.35,-24.8 26.02,-26.48 16.01,1.68 24.84,10.51 26.48,26.48 -1.64,15.67 -10.47,24.34 -26.48,26.02" /><path
         id="path26"
         style="fill:#e66b1e;fill-opacity:1;fill-rule:evenodd;stroke:none"
         d="M 1909.49,1819.49 H 975.512 C 1007.5,1748.16 1040.51,1695 1074.49,1660 c 34.34,-35 62.35,-57.81 84.03,-68.48 l 855.5,-42.03 -828,7.5 1.99,-63.98 h 918.51 v 56.01 c -21.68,12.97 -41.17,26.84 -58.51,41.49 -58.32,53.32 -96.33,103.98 -113.99,151.99 -18,48.01 -26.17,73.67 -24.53,76.99" /><path
         id="path28"
         style="fill:#e86d1f;fill-opacity:1;fill-rule:nonzero;stroke:none"
         d="m 44.1016,576.051 v 144.847 c 0,21.563 -0.9024,39.614 -2.6524,54.223 -1.8008,14.68 -4.9687,29.879 -9.539,45.617 h 58.75 c 62.3908,0 111.8788,-15.777 148.4418,-47.34 36.636,-31.558 55,-74.296 55,-128.128 0,-51.79 -17.032,-92.891 -51.09,-123.282 -34.063,-30.429 -80.16,-45.617 -138.282,-45.617 H 32.2305 c 4.3711,15.188 7.4179,30.149 9.2187,44.84 1.75,14.687 2.6524,32.969 2.6524,54.84 z m 52.3476,-62.18 c 42.8908,0 77.3788,11.559 103.4298,34.68 26.019,23.211 39.07,53.75 39.07,91.57 0,42.891 -12.429,77.418 -37.187,103.59 -24.692,26.25 -57.422,39.379 -98.133,39.379 h -7.1798 z m 252.2618,32.34 v 99.059 c 0,12.89 -0.781,24.46 -2.34,34.691 -1.492,10.309 -4.07,22.07 -7.82,35.309 h 68.129 c -3.871,-7.731 -6.559,-16.68 -8.129,-26.872 -1.481,-10.238 -2.18,-24.609 -2.18,-43.128 v -99.059 c 0,-18.551 0.699,-32.93 2.18,-43.121 1.57,-10.238 4.258,-19.141 8.129,-26.719 h -68.129 c 3.75,7.258 6.328,16.09 7.82,26.399 1.559,10.199 2.34,24.691 2.34,43.441 z m 22.5,268.75 c 8.949,0 16.559,-3.59 22.809,-10.781 6.25,-7.192 9.378,-16.02 9.378,-26.41 0,-10.309 -3.128,-19.059 -9.378,-26.25 -6.25,-7.11 -13.86,-10.622 -22.809,-10.622 -8.871,0 -16.41,3.512 -22.66,10.622 -6.25,7.191 -9.371,15.941 -9.371,26.25 0,10.39 3.121,19.218 9.371,26.41 6.25,7.191 13.789,10.781 22.66,10.781 z" /><path
         id="path30"
         style="fill:#e86d1f;fill-opacity:1;fill-rule:nonzero;stroke:none"
         d="m 497.73,540.27 c 0,-4.059 2.5,-7.571 7.5,-10.469 5,-2.813 11.141,-4.211 18.442,-4.211 h 51.406 c 20.512,0 35.512,-4.301 45,-12.82 9.57,-8.43 14.371,-21.872 14.371,-40.309 0,-20.512 -9.961,-37.852 -29.84,-52.031 -19.918,-14.258 -44.3,-21.41 -73.129,-21.41 -29.371,0 -51.402,2.929 -66.089,8.75 -14.61,5.75 -21.871,14.378 -21.871,25.941 0,5.859 2.89,12.418 8.75,19.687 5.929,7.301 17.652,18.903 35.152,34.84 -12.301,1.024 -22.031,3.051 -29.223,6.102 -9.801,4.25 -14.679,10.699 -14.679,19.371 0,6.449 2.57,12.23 7.808,17.34 5.313,5.078 19.262,15.359 41.871,30.789 -8.668,3.629 -16.558,8.75 -23.75,15.308 -15.929,14.692 -23.898,33.051 -23.898,55.153 0,25.199 7.969,46.179 23.898,62.969 15.942,16.761 35.981,25.16 60.16,25.16 18.512,0 34.731,-4.692 48.59,-14.059 h 24.692 c 9.449,0 18.789,0.391 27.968,1.25 9.141,0.93 15.621,1.949 19.371,3.117 l -5,-37.648 -38.589,-0.32 c 4.879,-10.622 7.339,-22.77 7.339,-36.399 0,-23.359 -8.039,-42.781 -24.058,-58.281 -16.051,-15.43 -36.172,-23.129 -60.313,-23.129 -6.168,0 -12.109,0.508 -17.808,1.559 -3.871,-1.79 -7.192,-4.29 -10,-7.5 -2.742,-3.04 -4.071,-5.93 -4.071,-8.75 z m 29.379,146.878 c -11.168,0 -20.121,-4.027 -26.879,-12.027 -6.789,-8.051 -10.152,-18.601 -10.152,-31.723 0,-15.117 4.102,-28.089 12.344,-38.91 8.316,-10.738 18.277,-16.09 29.848,-16.09 h -0.161 c 11.442,0 20.512,3.903 27.192,11.723 6.75,7.891 10.148,18.508 10.148,31.867 0,15.313 -4.058,28.321 -12.179,39.063 -8.129,10.711 -18.129,16.097 -30,16.097 z M 492.73,462.77 c 0,-8.629 3.598,-15 10.79,-19.059 7.261,-4.141 18.589,-6.25 33.902,-6.25 16.637,0 28.949,2.187 36.879,6.559 8,4.3 12.027,10.902 12.027,19.851 0,7.301 -2.887,13.039 -8.598,17.34 -5.621,4.379 -13.39,6.559 -23.281,6.559 h -47.027 c -4.063,-2.61 -7.582,-6.36 -10.473,-11.25 -2.808,-4.758 -4.219,-9.372 -4.219,-13.75 z" /><path
         id="path32"
         style="fill:#e86d1f;fill-opacity:1;fill-rule:nonzero;stroke:none"
         d="m 673.012,546.211 v 99.059 c 0,12.89 -0.782,24.46 -2.352,34.691 -1.48,10.309 -4.058,22.07 -7.808,35.309 h 68.128 c -3.871,-7.731 -6.57,-16.68 -8.128,-26.872 -1.481,-10.238 -2.192,-24.609 -2.192,-43.128 v -99.059 c 0,-18.551 0.711,-32.93 2.192,-43.121 1.558,-10.238 4.257,-19.141 8.128,-26.719 h -68.128 c 3.75,7.258 6.328,16.09 7.808,26.399 1.57,10.199 2.352,24.691 2.352,43.441 z m 22.5,268.75 c 8.937,0 16.558,-3.59 22.808,-10.781 6.25,-7.192 9.379,-16.02 9.379,-26.41 0,-10.309 -3.129,-19.059 -9.379,-26.25 -6.25,-7.11 -13.871,-10.622 -22.808,-10.622 -8.871,0 -16.41,3.512 -22.66,10.622 -6.25,7.191 -9.372,15.941 -9.372,26.25 0,10.39 3.122,19.218 9.372,26.41 6.25,7.191 13.789,10.781 22.66,10.781 z" /><path
         id="path34"
         style="fill:#e86d1f;fill-opacity:1;fill-rule:nonzero;stroke:none"
         d="m 840.66,471.051 c -18.75,0 -32.461,5.551 -41.09,16.719 -8.55,11.14 -12.808,28.949 -12.808,53.441 v 141.09 h -33.75 l 81.25,85.629 h 0.148 v -52.66 h 55.629 V 682.301 H 834.41 v -121.09 c 0,-16.172 2.738,-28.242 8.289,-36.25 5.5,-7.93 13.75,-11.871 24.68,-11.871 6.762,0 12.973,0.781 18.601,2.34 5.622,1.64 12.379,4.531 20.309,8.59 l -18.91,-45.93 c -8.359,-2.699 -15.617,-4.539 -21.867,-5.469 -6.25,-1.019 -14.532,-1.57 -24.852,-1.57 z" /><path
         id="path36"
         style="fill:#e86d1f;fill-opacity:1;fill-rule:nonzero;stroke:none"
         d="m 985.859,471.051 c -23.359,0 -41.328,5 -53.91,15 -12.609,10 -18.898,24.219 -18.898,42.66 0,12.269 4.41,23.828 13.277,34.687 8.942,10.821 20.942,19.372 35.942,25.622 l 70.31,29.07 v 21.711 c 0,13.008 -4.03,23.359 -12.03,31.097 -8.05,7.692 -18.87,11.563 -32.499,11.563 -8.75,0 -17.27,-1.52 -25.473,-4.531 -8.238,-3.051 -17.269,-7.969 -27.027,-14.84 l 13.121,45.93 c 9.379,3.949 18.437,6.8 27.187,8.601 8.832,1.867 17.813,2.809 26.871,2.809 25.82,0 45.2,-6.719 58.13,-20.16 13.01,-13.43 19.53,-33.59 19.53,-60.469 v -93.59 c 0,-19.922 0.55,-34.961 1.72,-45.16 1.25,-10.231 3.48,-18.43 6.72,-24.68 h -56.25 v 22.809 l -37.029,-27.66 z m 46.721,41.57 v 65.777 h -61.408 c -1.481,0 -3.363,-4.488 -5.621,-13.437 -2.313,-8.871 -3.442,-16.25 -3.442,-22.191 0,-11.36 3.629,-19.84 10.942,-25.469 7.379,-5.621 18.359,-8.43 32.969,-8.43 9.06,0 17.81,1.25 26.25,3.75 z" /><path
         id="path38"
         style="fill:#e86d1f;fill-opacity:1;fill-rule:nonzero;stroke:none"
         d="M 1138.12,546.211 V 735.27 c 0,15.511 -0.74,28.359 -2.18,38.601 -1.49,10.309 -4.14,20.699 -7.97,31.25 l 34.06,6.719 34.06,7.031 c -3.75,-10.859 -6.4,-22.93 -7.97,-36.25 -1.56,-13.359 -2.34,-31.492 -2.34,-54.383 V 546.211 c 0,-18.551 0.78,-32.93 2.34,-43.121 1.57,-10.238 4.22,-19.141 7.97,-26.719 h -68.12 c 3.83,7.258 6.48,16.09 7.97,26.399 1.44,10.199 2.18,24.691 2.18,43.441 z" /><path
         id="path40"
         style="fill:#e86d1f;fill-opacity:1;fill-rule:nonzero;stroke:none"
         d="m 1415.43,752.77 c -10.31,11.019 -20.63,18.992 -30.94,23.91 -10.23,5 -21.48,7.5 -33.75,7.5 -14.37,0 -26.33,-4.379 -35.78,-13.129 -9.37,-8.672 -14.06,-19.492 -14.06,-32.5 0,-11.172 3.63,-21.25 10.94,-30.313 7.18,-8.976 20.15,-19.367 38.9,-31.25 28.44,-18.117 48.44,-35.109 60,-50.937 11.56,-15.852 17.35,-34.332 17.35,-55.461 0,-28.559 -10.12,-52.309 -30.32,-71.25 -20.23,-18.871 -45.62,-28.289 -76.25,-28.289 -15.23,0 -28.24,1.097 -39.06,3.289 -10.86,2.18 -23.51,6.281 -37.97,12.34 v 64.371 c 10.51,-13.121 21.41,-22.813 32.66,-29.063 11.25,-6.168 23.63,-9.218 37.19,-9.218 16.95,0 31.01,4.851 42.18,14.531 11.25,9.769 16.88,22.039 16.88,36.719 0,12.699 -3.83,23.992 -11.41,33.91 -7.5,9.57 -20.9,20.55 -40.15,32.968 -27.93,17.5 -47.5,33.793 -58.75,48.903 -11.25,15.078 -16.88,32.39 -16.88,51.879 0,26.949 10.24,49.41 30.78,67.34 20.63,17.89 46.45,26.878 77.5,26.878 12.5,0 23.6,-1.097 33.28,-3.277 9.77,-2.191 18.99,-5.633 27.66,-10.32 z" /><path
         id="path42"
         style="fill:#e86d1f;fill-opacity:1;fill-rule:nonzero;stroke:none"
         d="m 1537.62,471.051 c -18.75,0 -32.46,5.551 -41.1,16.719 -8.55,11.14 -12.81,28.949 -12.81,53.441 v 141.09 h -33.75 l 81.25,85.629 h 0.16 v -52.66 h 55.62 v -32.969 h -55.62 v -121.09 c 0,-16.172 2.73,-28.242 8.28,-36.25 5.51,-7.93 13.75,-11.871 24.69,-11.871 6.75,0 12.96,0.781 18.59,2.34 5.62,1.64 12.38,4.531 20.31,8.59 l -18.9,-45.93 c -8.36,-2.699 -15.63,-4.539 -21.88,-5.469 -6.25,-1.019 -14.53,-1.57 -24.84,-1.57 z" /><path
         id="path44"
         style="fill:#e86d1f;fill-opacity:1;fill-rule:nonzero;stroke:none"
         d="m 1714.84,471.051 c -30.11,0 -55.23,11.14 -75.31,33.437 -20.12,22.391 -30.15,50.473 -30.15,84.223 0,37.699 11.13,69.059 33.43,94.059 22.39,25.082 50.35,37.66 83.91,37.66 30.31,0 55.47,-11.211 75.47,-33.59 20,-22.43 30,-50.43 30,-84.07 0,-37.809 -11.17,-69.219 -33.44,-94.219 -22.19,-25 -50.16,-37.5 -83.91,-37.5 z m 25.78,33.437 c 12.82,5.391 22.97,15.313 30.47,29.692 7.58,14.449 11.41,31.41 11.41,50.781 0,30.391 -7.34,54.769 -22.03,73.129 -14.61,18.43 -34.38,28.121 -59.38,29.058 -12.93,-5.308 -23.2,-15.269 -30.78,-29.847 -7.5,-14.602 -11.25,-31.52 -11.25,-50.781 0,-30.54 7.27,-54.961 21.88,-73.282 14.68,-18.359 34.57,-27.929 59.68,-28.75 z" /><path
         id="path46"
         style="fill:#e86d1f;fill-opacity:1;fill-rule:nonzero;stroke:none"
         d="m 1877.66,546.211 v 99.059 c 0,12.89 -0.75,24.46 -2.19,34.691 -1.49,10.309 -4.06,22.07 -7.81,35.309 h 57.81 v -42.5 l 37.03,41.718 c 11.02,3.953 21.6,5.942 31.72,5.942 8.32,0 15.39,-1.641 21.25,-4.84 l -9.69,-51.41 -2.19,1.558 c -8.98,6.563 -19.61,9.852 -31.87,9.852 -9.06,0 -20.94,-3.36 -35.63,-10 l -10.62,-4.852 V 546.211 c 0,-18.551 0.7,-32.93 2.19,-43.121 1.56,-10.238 4.25,-19.141 8.12,-26.719 h -68.12 c 3.75,7.258 6.32,16.09 7.81,26.399 1.44,10.199 2.19,24.691 2.19,43.441 z" /><path
         id="path48"
         style="fill:#e86d1f;fill-opacity:1;fill-rule:nonzero;stroke:none"
         d="m 2140.31,471.051 c -33.04,0 -60.11,11.019 -81.25,33.129 -21.05,22.07 -31.56,50.351 -31.56,84.84 0,37.699 9.26,68.992 27.81,93.91 18.52,25 41.72,37.5 69.53,37.5 h 0.47 c 27.27,0 48.28,-9.45 62.97,-28.282 14.69,-18.867 22.03,-45.859 22.03,-80.937 v -21.41 h -132.19 c 2.27,-21.68 8.6,-39.68 18.91,-54.063 13.01,-18.238 30.7,-27.34 53.13,-27.34 10.07,0 20.04,1.293 29.84,3.903 9.77,2.699 18.63,6.449 26.56,11.25 l -18.9,-45.621 c -10.32,-2.809 -18.71,-4.61 -25.16,-5.469 -6.37,-0.941 -13.75,-1.41 -22.19,-1.41 z m 30.94,151.879 c -0.12,20.82 -3.98,36.718 -11.56,47.66 -7.5,11.012 -18.52,16.558 -32.97,16.558 h 0.16 c -15.86,0 -28.09,-6.796 -36.72,-20.308 -6.88,-10.86 -11.06,-25.469 -12.5,-43.91 z" /><path
         id="path50"
         style="fill:#e86d1f;fill-opacity:1;fill-rule:nonzero;stroke:none"
         d="m 2368.55,664.18 c -6.79,7.89 -13.71,13.672 -20.78,17.34 -6.99,3.75 -14.8,5.628 -23.43,5.628 -9.5,0 -17.43,-2.5 -23.75,-7.5 -6.25,-5 -9.38,-11.25 -9.38,-18.75 0,-7.308 2.11,-13.867 6.41,-19.687 4.06,-5.941 11.87,-13.359 23.43,-22.191 19.46,-15.11 33.17,-28.399 41.1,-39.84 7.81,-11.25 11.72,-23.52 11.72,-36.719 0,-20.551 -7.15,-37.582 -21.41,-51.09 -14.3,-13.562 -32.3,-20.32 -54.06,-20.32 -11.8,0 -21.88,0.75 -30.31,2.187 -8.44,1.371 -18.83,3.992 -31.1,7.973 v 56.879 c 9.14,-11.18 18.32,-19.461 27.5,-24.852 9.26,-5.429 18.75,-8.117 28.44,-8.117 9.37,0 17.11,2.731 23.28,8.277 6.13,5.512 9.22,12.422 9.22,20.782 0,6.761 -2.46,13.281 -7.34,19.531 -4.93,6.129 -14.3,14.57 -28.13,25.309 -17.62,13.64 -30,25.941 -37.19,36.878 -7.11,10.821 -10.62,22.891 -10.62,36.25 0,19.571 7.81,35.821 23.44,48.75 15.62,13.012 35.19,19.532 58.75,19.532 8.63,0 16.09,-0.739 22.34,-2.192 6.33,-1.476 13.63,-4.058 21.87,-7.808 z" /><path
         id="path52"
         style="fill:#6a737b;fill-opacity:1;fill-rule:nonzero;stroke:none"
         d="m 135.59,89.6914 23.59,12.9686 c 1.761,-6.2498 5,-11.0584 9.691,-14.3787 4.758,-3.2422 10.93,-4.8399 18.43,-4.8399 6.449,0 11.488,1.4375 15.16,4.3672 3.629,3.0117 5.469,7.0703 5.469,12.1914 0,6.762 -6.52,12.539 -19.532,17.34 -4.378,1.64 -7.777,3.012 -10.16,4.07 -13.359,5.5 -22.648,11.09 -27.968,16.711 -5.309,5.707 -7.969,12.699 -7.969,20.938 0,11.14 4.379,20.16 13.129,27.031 8.75,6.961 20.308,10.469 34.691,10.469 9.68,0 17.969,-1.789 24.84,-5.309 6.879,-3.551 11.918,-8.59 15.16,-15.16 l -20.32,-14.059 c -1.563,3.949 -4.211,7.071 -7.961,9.379 -3.68,2.379 -7.969,3.59 -12.969,3.59 -5.43,0 -9.812,-1.328 -13.133,-3.91 -3.238,-2.61 -4.84,-6.051 -4.84,-10.309 0,-6.562 7.34,-12.5 22.032,-17.812 4.691,-1.68 8.32,-3.047 10.941,-4.059 11.438,-4.609 19.68,-9.808 24.68,-15.629 5,-5.742 7.5,-12.89 7.5,-21.402 0,-12.5001 -4.531,-22.3087 -13.59,-29.379 -9.063,-7.0703 -21.563,-10.6211 -37.5,-10.6211 -12.191,0 -22.34,2.3008 -30.473,6.8711 -8.117,4.5703 -14.449,11.5586 -18.898,20.9414 z M 264.922,67.0313 V 271.41 h 26.879 v -99.851 c 5.699,8.64 12.418,14.921 20.148,18.91 7.699,3.941 17.071,5.941 28.129,5.941 9.371,0 17.344,-1.531 23.902,-4.531 6.571,-2.93 11.641,-7.27 15.321,-12.969 2.179,-3.441 3.75,-7.461 4.679,-12.031 1.02,-4.609 1.571,-12.617 1.571,-24.07 V 67.0313 h -28.91 V 131.25 c 0,16.449 -2.032,27.34 -6.09,32.66 -3.992,5.391 -11.063,8.121 -21.25,8.121 -6.68,0 -12.621,-1.25 -17.821,-3.75 -5.23,-2.422 -9.332,-5.859 -12.339,-10.312 -2.11,-2.93 -3.551,-6.797 -4.371,-11.559 -0.86,-4.691 -1.25,-12.148 -1.25,-22.351 V 67.0313 Z" /><path
         id="path54"
         style="fill:#6a737b;fill-opacity:1;fill-rule:nonzero;stroke:none"
         d="m 521.762,129.059 c 0,11.64 -3.75,21.492 -11.25,29.531 -7.422,8.012 -16.532,12.031 -27.352,12.031 -10.738,0 -19.84,-4.019 -27.34,-12.031 -7.5,-8.039 -11.25,-17.891 -11.25,-29.531 0,-11.559 3.75,-21.36 11.25,-29.3676 7.5,-8.0508 16.602,-12.0312 27.34,-12.0312 10.711,0 19.852,3.9804 27.352,12.0312 7.5,8.0076 11.25,17.8086 11.25,29.3676 z m -107.352,0.32 c 0,9.141 1.719,17.812 5.16,25.93 3.442,8.132 8.442,15.351 15,21.722 6.328,6.25 13.668,11.02 22.032,14.379 8.437,3.32 17.187,5 26.25,5 9.449,0 18.32,-1.68 26.558,-5 8.32,-3.359 15.789,-8.289 22.352,-14.851 6.636,-6.36 11.636,-13.59 15,-21.719 3.437,-8.121 5.148,-16.641 5.148,-25.461 0,-9.18 -1.711,-17.82 -5.148,-25.938 -3.364,-8.1324 -8.242,-15.3199 -14.692,-21.5621 -6.871,-6.5703 -14.492,-11.5273 -22.808,-14.8476 -8.364,-3.4415 -17.153,-5.1524 -26.41,-5.1524 -9.063,0 -17.774,1.7109 -26.09,5.1524 -8.364,3.3203 -15.742,8.1992 -22.192,14.6875 -6.679,6.4414 -11.718,13.6718 -15.16,21.7222 -3.359,8.118 -5,16.758 -5,25.938 z" /><path
         id="path56"
         style="fill:#6a737b;fill-opacity:1;fill-rule:nonzero;stroke:none"
         d="m 610.039,129.84 c 0,-12.93 3.199,-23.238 9.691,-30.9298 6.442,-7.7383 14.918,-11.5704 25.469,-11.5704 10.821,0 19.211,3.6016 25.153,10.7813 5.937,7.1879 8.91,17.4299 8.91,30.7889 0,13.121 -3.133,23.36 -9.383,30.781 -6.168,7.5 -14.649,11.25 -25.469,11.25 -10.859,0 -19.289,-3.601 -25.308,-10.781 -6.051,-7.191 -9.063,-17.308 -9.063,-30.32 z M 582.379,8.28125 V 192.031 h 28.601 v -20.472 c 3.321,7.89 8.629,13.992 15.93,18.281 7.391,4.379 16.18,6.57 26.41,6.57 16.559,0 30,-6.18 40.309,-18.441 10.32,-12.309 15.473,-28.399 15.473,-48.278 0,-21.062 -5.122,-37.6207 -15.313,-49.691 -10.117,-12.1094 -23.988,-18.1211 -41.559,-18.1211 -8.871,0 -16.679,1.793 -23.441,5.3125 -6.801,3.5078 -12.738,8.8984 -17.809,16.0899 V 8.28125 Z" /><path
         id="path58"
         style="fill:#6a737b;fill-opacity:1;fill-rule:nonzero;stroke:none"
         d="m 725.16,89.6914 23.59,12.9686 c 1.762,-6.2498 5,-11.0584 9.691,-14.3787 4.758,-3.2422 10.938,-4.8399 18.438,-4.8399 6.441,0 11.48,1.4375 15.152,4.3672 3.629,3.0117 5.469,7.0703 5.469,12.1914 0,6.762 -6.52,12.539 -19.531,17.34 -4.379,1.64 -7.77,3.012 -10.16,4.07 -13.36,5.5 -22.649,11.09 -27.969,16.711 -5.309,5.707 -7.961,12.699 -7.961,20.938 0,11.14 4.371,20.16 13.121,27.031 8.75,6.961 20.309,10.469 34.691,10.469 9.688,0 17.969,-1.789 24.84,-5.309 6.879,-3.551 11.918,-8.59 15.16,-15.16 l -20.312,-14.059 c -1.57,3.949 -4.219,7.071 -7.969,9.379 -3.68,2.379 -7.969,3.59 -12.969,3.59 -5.429,0 -9.812,-1.328 -13.132,-3.91 -3.239,-2.61 -4.84,-6.051 -4.84,-10.309 0,-6.562 7.34,-12.5 22.031,-17.812 4.691,-1.68 8.32,-3.047 10.941,-4.059 11.438,-4.609 19.68,-9.808 24.68,-15.629 5,-5.742 7.5,-12.89 7.5,-21.402 0,-12.5001 -4.531,-22.3087 -13.59,-29.379 -9.062,-7.0703 -21.562,-10.6211 -37.5,-10.6211 -12.191,0 -22.34,2.3008 -30.472,6.8711 -8.118,4.5703 -14.45,11.5586 -18.899,20.9414 z" /><path
         id="path60"
         style="fill:#6a737b;fill-opacity:1;fill-rule:nonzero;stroke:none"
         d="m 1053.71,67.0313 h -28.59 v 16.25 c -5.12,-7.1915 -11.1,-12.5821 -17.97,-16.0899 -6.8,-3.5195 -14.529,-5.3125 -23.279,-5.3125 -17.742,0 -31.641,6.0117 -41.723,18.1211 -10.117,12.0703 -15.16,28.629 -15.16,49.691 0,19.879 5.16,35.969 15.473,48.278 10.391,12.261 23.949,18.441 40.629,18.441 10.191,0 18.9,-2.148 26.09,-6.41 7.27,-4.301 12.58,-10.43 15.94,-18.441 v 20.472 h 28.59 z M 1025.9,129.84 c 0,13.012 -3.05,23.129 -9.06,30.32 -5.94,7.18 -14.34,10.781 -25.16,10.781 -10.86,0 -19.379,-3.75 -25.629,-11.25 -6.172,-7.421 -9.211,-17.66 -9.211,-30.781 0,-13.359 2.961,-23.601 8.898,-30.7889 6.024,-7.1797 14.461,-10.7813 25.313,-10.7813 10.319,0 18.679,3.9102 25.159,11.7188 6.45,7.8204 9.69,18.0504 9.69,30.7814 z" /><path
         id="path62"
         style="fill:#6a737b;fill-opacity:1;fill-rule:nonzero;stroke:none"
         d="m 1100.08,67.0313 v 99.9997 h -21.88 v 25 h 21.88 v 47.348 h 28.59 v -47.348 h 21.88 v -25 h -21.88 V 67.0313 Z" /><path
         id="path64"
         style="fill:#6a737b;fill-opacity:1;fill-rule:nonzero;stroke:none"
         d="m 1260.74,67.0313 v 99.9997 h -21.87 v 25 h 21.87 v 33.438 c 0,16.64 3.44,28.941 10.31,36.871 6.88,7.89 17.58,11.879 32.19,11.879 3.01,0 6.14,-0.27 9.38,-0.778 3.32,-0.429 6.64,-1.101 10,-2.031 v -25.941 c -2.31,1.332 -4.65,2.34 -7.03,2.972 -2.31,0.7 -4.65,1.09 -7.04,1.09 -6.87,0 -11.83,-2.152 -14.84,-6.41 -2.93,-4.172 -4.37,-11.242 -4.37,-21.242 v -29.848 h 30 v -25 h -30 V 67.0313 Z" /><path
         id="path66"
         style="fill:#6a737b;fill-opacity:1;fill-rule:nonzero;stroke:none"
         d="m 1337.15,246.09 c 0,4.769 1.76,8.949 5.31,12.5 3.52,3.519 7.74,5.32 12.66,5.32 5.08,0 9.29,-1.719 12.65,-5.16 3.44,-3.359 5.16,-7.578 5.16,-12.66 0,-5.11 -1.72,-9.449 -5.16,-12.969 -3.43,-3.43 -7.65,-5.152 -12.65,-5.152 -4.92,0 -9.14,1.761 -12.66,5.312 -3.55,3.629 -5.31,7.891 -5.31,12.809 z m 3.75,-54.059 h 28.5898 v -125 H 1340.9 Z" /><path
         id="path68"
         style="fill:#6a737b;fill-opacity:1;fill-rule:nonzero;stroke:none"
         d="M 1410.31,67.0313 V 192.031 h 26.88 v -20.472 c 5.7,8.64 12.42,14.921 20.15,18.91 7.7,3.941 17.07,5.941 28.13,5.941 9.37,0 17.34,-1.531 23.91,-4.531 6.56,-2.93 11.64,-7.27 15.31,-12.969 2.19,-3.441 3.75,-7.461 4.69,-12.031 1.01,-4.609 1.56,-12.617 1.56,-24.07 V 67.0313 h -28.91 V 131.25 c 0,16.449 -2.03,27.34 -6.09,32.66 -3.99,5.391 -11.06,8.121 -21.25,8.121 -6.68,0 -12.62,-1.25 -17.81,-3.75 -5.24,-2.422 -9.34,-5.859 -12.35,-10.312 -2.11,-2.93 -3.55,-6.797 -4.37,-11.559 -0.86,-4.691 -1.25,-12.148 -1.25,-22.351 V 67.0313 Z" /><path
         id="path70"
         style="fill:#6a737b;fill-opacity:1;fill-rule:nonzero;stroke:none"
         d="m 1658.71,129.84 c 0,13.012 -3.05,23.129 -9.06,30.32 -5.94,7.18 -14.34,10.781 -25.16,10.781 -10.86,0 -19.37,-3.75 -25.62,-11.25 -6.17,-7.421 -9.22,-17.66 -9.22,-30.781 0,-13.359 2.97,-23.601 8.9,-30.7889 6.02,-7.1797 14.46,-10.7813 25.32,-10.7813 10.31,0 18.67,3.9102 25.15,11.7188 6.45,7.8204 9.69,18.0504 9.69,30.7814 z m 27.81,-55.0002 c 0,-24.4492 -4.92,-41.6406 -14.68,-51.5585 -9.69,-10 -26.1,-15.00005 -49.22,-15.00005 -17.19,0 -30.94,3.66795 -41.25,10.93755 -10.32,7.1914 -15.59,16.8007 -15.78,28.75 l 30.78,0.1523 c 0.39,-5.3125 2.89,-9.3711 7.5,-12.1797 4.57,-2.8203 10.97,-4.2226 19.22,-4.2226 12.26,0 21.09,2.7304 26.4,8.121 5.39,5.3204 8.13,14.2188 8.13,26.7188 l 0.31,16.7227 c -5.12,-7.1915 -11.09,-12.5821 -17.97,-16.0899 -6.8,-3.5195 -14.53,-5.3125 -23.28,-5.3125 -17.73,0 -31.64,6.0117 -41.72,18.1211 -10.12,12.0703 -15.16,28.629 -15.16,49.691 0,19.879 5.16,35.969 15.47,48.278 10.39,12.261 23.95,18.441 40.63,18.441 10.19,0 18.9,-2.148 26.09,-6.41 7.27,-4.301 12.58,-10.43 15.94,-18.441 v 20.472 h 28.59 z" /><path
         id="path72"
         style="fill:#6a737b;fill-opacity:1;fill-rule:nonzero;stroke:none"
         d="m 1846.48,125.309 h -100 c 0.71,-11.68 4.22,-20.778 10.47,-27.3402 6.25,-6.5586 14.53,-9.8477 24.85,-9.8477 9.25,0 16.95,1.918 23.12,5.7891 6.13,3.8203 11.49,10.0698 16.1,18.7498 l 24.06,-13.4412 c -6.99,-12.6172 -15.7,-21.9883 -26.1,-28.129 -10.31,-6.1289 -22.46,-9.2109 -36.4,-9.2109 -20.12,0 -36.1,6.0899 -47.97,18.2813 -11.8,12.2617 -17.66,28.5898 -17.66,48.8988 0,19.691 6.1,35.82 18.28,48.441 12.27,12.578 28.05,18.91 47.35,18.91 20.08,0 35.78,-5.789 47.03,-17.351 11.25,-11.481 16.87,-27.579 16.87,-48.278 z m -29.68,19.222 c -1.18,8.949 -4.61,15.778 -10.32,20.469 -5.74,4.691 -13.55,7.031 -23.43,7.031 -9.38,0 -16.96,-2.301 -22.66,-6.871 -5.74,-4.5 -9.77,-11.371 -12.03,-20.629 z" /><path
         id="path74"
         style="fill:#6a737b;fill-opacity:1;fill-rule:nonzero;stroke:none"
         d="m 1905.08,172.031 c 3.01,8.321 7.03,14.449 12.03,18.438 5.08,3.941 11.41,5.941 18.91,5.941 4.06,0 8,-0.551 11.87,-1.57 3.95,-0.93 7.81,-2.34 11.56,-4.219 l -10.31,-24.211 c -2.42,1.75 -5.08,3.039 -7.97,3.899 -2.81,0.82 -6.01,1.25 -9.53,1.25 -9.49,0 -16.33,-3.829 -20.47,-11.399 -4.06,-7.621 -6.09,-20.39 -6.09,-38.281 V 67.0313 h -28.6 V 192.34 h 28.6 z" /><path
         id="path76"
         style="fill:#6a737b;fill-opacity:1;fill-rule:nonzero;stroke:none"
         d="m 1982.85,67.0313 v 99.9997 h -21.87 v 25 h 21.87 v 47.348 h 28.6 v -47.348 h 21.87 v -25 h -21.87 V 67.0313 Z" /><path
         id="path78"
         style="fill:#6a737b;fill-opacity:1;fill-rule:nonzero;stroke:none"
         d="m 2055.39,246.09 c 0,4.769 1.76,8.949 5.31,12.5 3.52,3.519 7.74,5.32 12.66,5.32 5.08,0 9.3,-1.719 12.66,-5.16 3.43,-3.359 5.15,-7.578 5.15,-12.66 0,-5.11 -1.72,-9.449 -5.15,-12.969 -3.44,-3.43 -7.66,-5.152 -12.66,-5.152 -4.92,0 -9.14,1.761 -12.66,5.312 -3.55,3.629 -5.31,7.891 -5.31,12.809 z m 3.75,-54.059 h 28.5898 v -125 H 2059.14 Z" /><path
         id="path80"
         style="fill:#6a737b;fill-opacity:1;fill-rule:nonzero;stroke:none"
         d="m 2156.21,129.84 c 0,-12.93 3.2,-23.238 9.69,-30.9298 6.44,-7.7383 14.92,-11.5704 25.47,-11.5704 10.82,0 19.22,3.6016 25.15,10.7813 5.94,7.1879 8.91,17.4299 8.91,30.7889 0,13.121 -3.13,23.36 -9.38,30.781 -6.17,7.5 -14.64,11.25 -25.46,11.25 -10.86,0 -19.3,-3.601 -25.32,-10.781 -6.05,-7.191 -9.06,-17.308 -9.06,-30.32 z M 2128.55,8.28125 V 192.031 h 28.6 v -20.472 c 3.32,7.89 8.63,13.992 15.94,18.281 7.38,4.379 16.17,6.57 26.4,6.57 16.56,0 30,-6.18 40.31,-18.441 10.32,-12.309 15.47,-28.399 15.47,-48.278 0,-21.062 -5.11,-37.6207 -15.31,-49.691 -10.12,-12.1094 -23.98,-18.1211 -41.56,-18.1211 -8.87,0 -16.68,1.793 -23.44,5.3125 -6.8,3.5078 -12.73,8.8984 -17.81,16.0899 V 8.28125 Z" /><path
         id="path82"
         style="fill:#6a737b;fill-opacity:1;fill-rule:nonzero;stroke:none"
         d="m 2271.33,89.6914 23.59,12.9686 c 1.76,-6.2498 5,-11.0584 9.69,-14.3787 4.77,-3.2422 10.94,-4.8399 18.44,-4.8399 6.44,0 11.48,1.4375 15.15,4.3672 3.64,3.0117 5.47,7.0703 5.47,12.1914 0,6.762 -6.52,12.539 -19.53,17.34 -4.37,1.64 -7.77,3.012 -10.16,4.07 -13.36,5.5 -22.65,11.09 -27.96,16.711 -5.32,5.707 -7.97,12.699 -7.97,20.938 0,11.14 4.37,20.16 13.12,27.031 8.75,6.961 20.31,10.469 34.69,10.469 9.69,0 17.97,-1.789 24.84,-5.309 6.88,-3.551 11.92,-8.59 15.16,-15.16 l -20.31,-14.059 c -1.57,3.949 -4.22,7.071 -7.97,9.379 -3.67,2.379 -7.97,3.59 -12.97,3.59 -5.43,0 -9.81,-1.328 -13.13,-3.91 -3.24,-2.61 -4.84,-6.051 -4.84,-10.309 0,-6.562 7.34,-12.5 22.03,-17.812 4.69,-1.68 8.32,-3.047 10.94,-4.059 11.44,-4.609 19.69,-9.808 24.69,-15.629 5,-5.742 7.5,-12.89 7.5,-21.402 0,-12.5001 -4.53,-22.3087 -13.6,-29.379 -9.06,-7.0703 -21.56,-10.6211 -37.5,-10.6211 -12.18,0 -22.34,2.3008 -30.47,6.8711 -8.12,4.5703 -14.45,11.5586 -18.9,20.9414 z" /></g></g></svg>